<svg id="add" xmlns="http://www.w3.org/2000/svg" width="14.848" height="16.25" viewBox="0 0 14.848 16.25">
  <g id="Group_2356" data-name="Group 2356" transform="translate(2.903)">
    <g id="Group_2355" data-name="Group 2355">
      <path id="Path_2672" data-name="Path 2672" d="M123.342,0a3.479,3.479,0,1,0,3.48,3.479A3.483,3.483,0,0,0,123.342,0Z" transform="translate(-119.862 0)" fill="#6f6bb2"/>
    </g>
  </g>
  <g id="Group_2358" data-name="Group 2358" transform="translate(0 7.036)">
    <g id="Group_2357" data-name="Group 2357">
      <path id="Path_2673" data-name="Path 2673" d="M47.29,237.567a6.381,6.381,0,0,0-11.682,3.553v1.016h8.478a3.926,3.926,0,0,1-.065-.716,3.905,3.905,0,0,1,3.27-3.853Z" transform="translate(-35.608 -234.738)" fill="#6f6bb2"/>
    </g>
  </g>
  <g id="Group_2360" data-name="Group 2360" transform="translate(9.107 10.509)">
    <g id="Group_2359" data-name="Group 2359">
      <path id="Path_2674" data-name="Path 2674" d="M312.639,345.377l-.092,0a2.863,2.863,0,1,0,.092,0Zm1.585,3.387h-1.068v1.068h-1.034v-1.068h-1.068V347.73h1.068v-1.068h1.034v1.068h1.068Z" transform="translate(-309.769 -345.377)" fill="#6f6bb2"/>
    </g>
  </g>
</svg>
