<svg id="user_4_" data-name="user(4)" xmlns="http://www.w3.org/2000/svg" width="65" height="65" viewBox="0 0 65 65">
  <path id="Path_2544" data-name="Path 2544" d="M65,32.5A32.5,32.5,0,1,1,32.5,0,32.419,32.419,0,0,1,65,32.5Zm0,0" transform="translate(0)" fill="#6f6bb2"/>
  <path id="Path_2545" data-name="Path 2545" d="M288.506,32.5A32.5,32.5,0,0,1,256,65V0A32.5,32.5,0,0,1,288.506,32.5Zm0,0" transform="translate(-223.506)" fill="#353448"/>
  <path id="Path_2546" data-name="Path 2546" d="M127.286,293.525v.13a32.493,32.493,0,0,1-43.8,0v-.13a21.9,21.9,0,1,1,43.8,0Zm0,0" transform="translate(-72.887 -237.143)" fill="#f4f4f4"/>
  <path id="Path_2547" data-name="Path 2547" d="M277.9,293.525v.13a32.391,32.391,0,0,1-21.9,8.488V271.621a21.9,21.9,0,0,1,21.9,21.9Zm0,0" transform="translate(-223.503 -237.143)" fill="#e3e3e3"/>
  <path id="Path_2548" data-name="Path 2548" d="M177.062,102.548a13.435,13.435,0,1,1-13.435-13.435A13.45,13.45,0,0,1,177.062,102.548Zm0,0" transform="translate(-131.126 -77.801)" fill="#ffdba9"/>
  <path id="Path_2549" data-name="Path 2549" d="M269.435,102.548A13.45,13.45,0,0,1,256,115.984V89.113A13.45,13.45,0,0,1,269.435,102.548Zm0,0" transform="translate(-223.501 -77.801)" fill="#e6b376"/>
  <g id="Group_6091" data-name="Group 6091" transform="translate(23.394 43.494)">
    <path id="Path_3495" data-name="Path 3495" d="M55.8,28.946A7.782,7.782,0,0,1,62.863,33.5v.009l.009.009.272.535a7.761,7.761,0,0,1-7.293,10.4h-7.8V39.1c0-.952,0-1.941.009-2.907A7.729,7.729,0,0,1,55.8,28.95m0-.39a8.113,8.113,0,0,0-8.119,7.62c-.014,1.107-.009,2.209-.009,3.315v5.356h8.187a8.149,8.149,0,0,0,7.651-10.944l-.286-.558a8.151,8.151,0,0,0-7.416-4.785Z" transform="translate(-46.44 -28.56)" fill="#353448"/>
    <path id="Path_3496" data-name="Path 3496" d="M56.594,29.98a7.471,7.471,0,0,0-7.475,7.012c-.009,1.016-.009,2.032-.009,3.048v4.93h7.534A7.494,7.494,0,0,0,63.683,34.9l-.263-.513a7.506,7.506,0,0,0-6.826-4.4Z" transform="translate(-47.228 -29.336)" fill="#353448"/>
    <path id="Path_3497" data-name="Path 3497" d="M45.987,47.371h0a.941.941,0,0,0,.839.531.557.557,0,0,0,.122-.009h0a.939.939,0,0,0,.8-.757h0a1.055,1.055,0,0,0,.018-.168.923.923,0,0,0-.027-.218c-.009.009,0-.014,0,0,.694-.581,3.823-4.218,4.912-5.13-.014,0,.009-.009,0,0a.941.941,0,0,0,.372.077.986.986,0,0,0,.281-.045c-.009-.009.014,0,0,0,.254.259,2.68,2.622,2.771,2.721,0-.014.009.009,0,0a.942.942,0,0,0-.05.3.98.98,0,0,0,.054.322.942.942,0,0,0,.844.617h.041a.943.943,0,0,0,.83-.513h0a.89.89,0,0,0,.1-.422,1.091,1.091,0,0,0-.014-.168c-.009.009,0-.014,0,0,.522-.39,3.048-3.252,4.1-4.041a1,1,0,0,0,.417.1.916.916,0,0,0,.694-.3h0a.916.916,0,0,0,.245-.63V39.57a.92.92,0,0,0-.322-.658h0a.892.892,0,0,0-.6-.222.922.922,0,0,0-.653.263h0a.949.949,0,0,0-.272.839c.009-.009,0,.014,0,0-.63.476-3.161,3.338-4.091,4.041.014,0-.009.009,0,0a.972.972,0,0,0-.422-.1.93.93,0,0,0-.277.045h0s-2.2-2.141-2.771-2.717c0,.014-.009-.009,0,0a.868.868,0,0,0,.05-.231h0v-.077a.933.933,0,0,0-.413-.771h0a.927.927,0,0,0-.925-.073h0a.948.948,0,0,0-.535.857.789.789,0,0,0,.027.2c.009-.009,0,.014,0,0-.875.735-4,4.368-4.907,5.125.014,0-.009.009,0,0a.92.92,0,0,0-.367-.077.936.936,0,0,0-.662.268h0a.942.942,0,0,0-.181,1.079Zm.041-.413a.8.8,0,0,1,.268-.59.842.842,0,0,1,.372-.2.809.809,0,0,1,.485.045l.023.009h.014l.036.023.032-.027c.73-.612,4.622-4.885,5-5.2l-.014-.041v-.009l-.009-.036a.132.132,0,0,0-.009-.041v-.032a.187.187,0,0,1-.009-.041v-.063a.34.34,0,0,1,.009-.1v-.014c.009-.027.014-.054.023-.086l.009-.032a.484.484,0,0,1,.032-.086l.014-.023a.5.5,0,0,1,.036-.068l.014-.027c.018-.027.036-.054.054-.077v-.009l.018-.009c.018-.018.036-.041.054-.059l.018-.018s.045-.036.073-.054l.027-.018a.633.633,0,0,1,.077-.041h.009a.322.322,0,0,1,.082-.036L52.795,40l.054-.014a.306.306,0,0,1,.063-.009h.023s.032,0,.05-.009h.063a.34.34,0,0,1,.1.009h.027a.69.69,0,0,0,.091.027c.023,0,.041.018.063.023a.189.189,0,0,1,.045.018c.036.018.068.036.1.059l.014.014a.672.672,0,0,1,.063.05c.014.009.023.023.036.032a.274.274,0,0,1,.036.036.249.249,0,0,1,.032.041.251.251,0,0,0,.027.036c.009.014.018.032.027.045a.184.184,0,0,1,.023.041c.009.014.014.032.023.045s.014.032.018.045.009.032.014.045l.014.054a.2.2,0,0,0,.009.045.265.265,0,0,0,.009.059v.132a.3.3,0,0,1,0,.063V40.9l-.009.023v.023l-.014.027v.018l-.009.014-.009.032v.018l-.009.014-.009.027.027.027c.358.363,2.445,2.381,2.853,2.8l.041-.014H56.7a.452.452,0,0,1,.05-.018.107.107,0,0,0,.036-.009H56.8l.018-.009h.009l.032,0h.086a.442.442,0,0,1,.109.009h.009s.023,0,.036.009a.277.277,0,0,1,.059.014h.018l.036.018a.19.19,0,0,1,.045.018l.027.014.032.014.018.009.036.018.014-.009.018-.014c.785-.59,3.374-3.5,4.186-4.114l-.009-.041v-.027l-.009-.023v-.023a.34.34,0,0,1-.009-.1v-.014a.578.578,0,0,1,0-.086v-.032a.378.378,0,0,0,.018-.068l.009-.027a.809.809,0,0,1,.077-.181l.009-.018c.014-.023.032-.045.045-.068l.014-.014c.023-.027.041-.05.068-.077a.294.294,0,0,1,.041-.036l.014-.009s.041-.032.063-.045h0a.723.723,0,0,1,.132-.068h.009a.855.855,0,0,1,.141-.045h.009s.027,0,.036,0a.881.881,0,0,1,.109-.009H62.4a.6.6,0,0,1,.122.014.954.954,0,0,1,.109.027l.027.009a.746.746,0,0,1,.245.145.754.754,0,0,1,.063.059l.009.009s.032.036.045.054l.014.023a.521.521,0,0,1,.032.05l.014.027a.4.4,0,0,1,.023.045l.014.032a.289.289,0,0,1,.018.045c0,.014.009.023.014.036l.009.023v.014l0,.009a.085.085,0,0,0,.009.036.161.161,0,0,0,.009.045v.118a.6.6,0,0,1-.014.127v.014l0,.014a.9.9,0,0,1-.032.118v.009l-.009.014c-.018.041-.036.077-.054.113h0l0,.014a.6.6,0,0,1-.086.109l-.018.018a.779.779,0,0,1-.177.141h0a.362.362,0,0,1-.073.036H62.7a.4.4,0,0,1-.068.027h-.014s-.045.018-.063.023h-.027l-.059.014h-.086a.442.442,0,0,1-.109-.009h-.009s-.023,0-.036-.009a.225.225,0,0,1-.059-.014h-.018a.253.253,0,0,0-.036-.018.189.189,0,0,1-.045-.018l-.027-.014-.027-.014-.018-.009-.036-.018-.032.027c-.776.585-4.186,4.114-4.186,4.114l.009.041v.032l.009.032a.154.154,0,0,0,0,.045v.068h0a.607.607,0,0,1,0,.091V44.8a.567.567,0,0,1-.014.086l-.009.032v.023l-.014.027v.009c-.014.027-.027.059-.041.086s-.023.036-.032.054-.014.027-.023.041a.788.788,0,0,1-.113.132.826.826,0,0,1-.367.2.788.788,0,0,1-.177.023h-.041a.447.447,0,0,1-.109-.014h0a.83.83,0,0,1-.517-.345.814.814,0,0,1-.091-.177.579.579,0,0,1-.032-.127v-.014a.578.578,0,0,1-.009-.127v-.113a.371.371,0,0,1,.009-.041v-.018l.009-.032v-.014l.027-.068V44.4h0l.014-.036s-2.34-2.286-2.885-2.839l-.041.014h-.018a.452.452,0,0,1-.05.018l-.036.009h-.023l-.018.009h-.014l-.032,0c-.027,0-.059,0-.086,0a.735.735,0,0,1-.1,0h-.009l-.023,0a.318.318,0,0,1-.063-.014h-.023l-.023-.014-.045-.014-.032-.014-.023-.009h-.014l-.036-.023-.032.027c-.989.83-4.282,4.6-5,5.207l.009.041v.014a.844.844,0,0,1-.009.463v.014a.825.825,0,0,1-.662.531h-.1a.876.876,0,0,1-.222-.032.814.814,0,0,1-.476-.381.827.827,0,0,1-.1-.4Z" transform="translate(-45.479 -34.096)" fill="#353448"/>
    <path id="Path_3498" data-name="Path 3498" d="M45.468,46.934l-.349.172h0l.349-.172-.354.163a1.288,1.288,0,0,0,.485.544,1.311,1.311,0,0,0,.7.2h0a.776.776,0,0,0,.177-.014h0l-.059-.386.045.386a1.316,1.316,0,0,0,.744-.354,1.3,1.3,0,0,0,.39-.726l-.381-.068.376.1h0v-.023a1.067,1.067,0,0,0,.027-.245h-.34l.34.009v-.009h-.34l.34.009h0v-.009a1.3,1.3,0,0,0-.036-.3l-.145-.617L46.956,46l.24.29-.172-.336c-.036.018-.054.036-.073.045l.24.29-.172-.336.172.345v-.386a.338.338,0,0,0-.172.041l.172.345v0l.19-.336a.386.386,0,0,0-.19-.05V46.3l.19-.336-.19.336.3-.24a.335.335,0,0,0-.113-.1l-.19.336.3-.24-.3.24.376-.1a.332.332,0,0,0-.073-.145l-.3.24.376-.1-.372.1h.386a.254.254,0,0,0-.014-.1l-.372.1h0l.372.091a.51.51,0,0,0,.009-.091H47.2l.372.091L47.2,46.3l.313.222a.358.358,0,0,0,.059-.132L47.2,46.3l.313.222L47.2,46.3l.218.317a.371.371,0,0,0,.1-.1l-.313-.227.218.317-.218-.317v.386a.387.387,0,0,0,.218-.068l-.218-.317v0l-.227.317a.386.386,0,0,0,.227.073V46.3l-.227.317L47.2,46.3l-.308.231a.378.378,0,0,0,.086.082L47.2,46.3l-.308.231.3-.231-.354.141a.546.546,0,0,0,.05.086l.3-.231-.354.141.345-.136-.363.086s.009.027.018.05l.345-.136-.363.086.145.612.481-.4a5.416,5.416,0,0,0,.395-.376c.277-.281.635-.667,1.039-1.107.6-.658,1.306-1.429,1.941-2.1.317-.34.617-.653.884-.921s.494-.485.653-.617l.485-.408-.585-.245-.145.349.245-.286a.272.272,0,0,0-.1-.059l-.145.349.245-.286-.249.295.331-.2a.3.3,0,0,0-.082-.1l-.249.295.331-.2-.331.2h.386a.416.416,0,0,0-.054-.2l-.331.2h0l.358.154a.425.425,0,0,0,.032-.154h-.386l.358.154-.354-.154.236.308a.413.413,0,0,0,.122-.154l-.354-.154.236.308-.231-.3.1.372a.339.339,0,0,0,.136-.068l-.231-.3.1.372-.1-.367v.381a.265.265,0,0,0,.1-.014l-.1-.367v0l-.177.34a.342.342,0,0,0,.177.041v-.386l-.177.34.177-.345-.313.227a.387.387,0,0,0,.136.118l.177-.345-.313.227.313-.227h-.386a.4.4,0,0,0,.073.227l.313-.227h0l-.363-.136a.387.387,0,0,0-.023.136h.386l-.363-.136.358.136-.295-.245a.427.427,0,0,0-.063.109l.358.136-.295-.245.29.24-.245-.286s-.027.027-.045.05l.29.24-.245-.286L51.4,41.3l.576.249a1.364,1.364,0,0,0,.526.109A1.382,1.382,0,0,0,52.9,41.6l.608-.186-.444-.454-.272.263.327-.186a.3.3,0,0,0-.059-.077l-.272.263.327-.186-.336.19h.386a.389.389,0,0,0-.05-.19l-.336.19h0l.327.209a.413.413,0,0,0,.063-.209h-.386l.327.209-.327-.209.222.317a.379.379,0,0,0,.1-.1l-.327-.209.222.317-.222-.317.091.376A.358.358,0,0,0,53,41.546l-.222-.317.091.376-.091-.372v.386a.357.357,0,0,0,.091-.009l-.091-.372v0l-.163.345a.369.369,0,0,0,.163.036v-.381l-.163.345.163-.349L52.5,41.5a.329.329,0,0,0,.118.086l.163-.349L52.5,41.5l.281-.263-.354.159a.519.519,0,0,0,.068.1l.281-.263-.354.159.354-.159h-.386a.356.356,0,0,0,.036.159l.354-.159h0l-.322-.218a.376.376,0,0,0-.068.218h.386l-.322-.218.317.213-.19-.336a.394.394,0,0,0-.132.118l.317.213-.19-.336.181.327-.113-.354a.541.541,0,0,0-.068.032l.181.327-.113-.354-.6.19.44.449.19.19c.317.313.943.925,1.5,1.47.277.272.54.526.735.721.1.1.181.177.24.236.032.027.054.054.073.073l.018.018h0v0l.118-.113-.122.109h0l.118-.109-.122.109.44.481.213-.617-.354-.122.3.227a.38.38,0,0,0,.054-.1l-.354-.122.3.227-.308-.231.213.322a.369.369,0,0,0,.1-.091l-.308-.231.213.322-.213-.322v.386a.409.409,0,0,0,.213-.063l-.213-.322v0l-.163.354a.376.376,0,0,0,.163.036v-.386l-.163.354.163-.354-.313.231a.359.359,0,0,0,.15.122l.163-.354-.313.231.308-.227-.372.1a.36.36,0,0,0,.063.127l.308-.227-.372.1.367-.1h-.381a.253.253,0,0,0,.014.1l.367-.1h0l-.376-.073a.452.452,0,0,0-.009.073h.386l-.376-.073.381.073-.295-.249a.376.376,0,0,0-.082.172l.381.073-.295-.249.295.249-.168-.349a.365.365,0,0,0-.127.1l.295.249-.168-.349.168.349v-.386a.366.366,0,0,0-.168.041l.168.349v0l.127-.363a.335.335,0,0,0-.127-.023v.386l.127-.363-.127.363.231-.3a.36.36,0,0,0-.1-.054l-.127.363.231-.3-.227.3.277-.254s-.027-.027-.05-.045l-.227.3.277-.254-.44-.476-.213.608a1.357,1.357,0,0,0-.073.426,1.422,1.422,0,0,0,.077.454h0a1.322,1.322,0,0,0,1.193.871l.014-.39-.027.386h.068a1.289,1.289,0,0,0,.689-.2,1.306,1.306,0,0,0,.485-.531l-.349-.172.345.181h0a1.286,1.286,0,0,0,.145-.6,1.7,1.7,0,0,0-.018-.227l-.1-.64-.517.39.227.3-.159-.34-.068.041.227.3-.159-.34.163.349v-.386a.414.414,0,0,0-.163.036l.163.349v0l.177-.345a.384.384,0,0,0-.177-.041v.386l.177-.345-.177.345.295-.254a.39.39,0,0,0-.118-.091l-.177.345.295-.254-.29.254.372-.1a.451.451,0,0,0-.082-.15l-.29.254.372-.1-.372.1h.386a.313.313,0,0,0-.014-.1l-.372.1h0l.367.1a.323.323,0,0,0,.014-.1h-.381l.367.1-.367-.1.3.231A.413.413,0,0,0,57.7,44.2l-.367-.1.3.231-.308-.231.218.317a.421.421,0,0,0,.091-.086l-.308-.231.218.317-.218-.322.127.363a.424.424,0,0,0,.091-.045l-.218-.322.127.363-.127-.367v.386a.353.353,0,0,0,.127-.023l-.127-.367v0l-.127.367a.417.417,0,0,0,.127.023v-.386l-.127.367.127-.367-.286.263a.4.4,0,0,0,.159.1l.127-.367-.286.263.286-.259-.363.132a.372.372,0,0,0,.077.127l.286-.259-.363.132.349-.127-.367.059a.29.29,0,0,0,.018.068l.349-.127-.367.059.1.635.513-.386c.045-.036.1-.077.145-.122.1-.086.213-.2.349-.336.472-.472,1.166-1.216,1.85-1.919.34-.354.68-.694.984-.984a9.174,9.174,0,0,1,.767-.676l-.236-.308-.168.349a1.333,1.333,0,0,0,.585.132,1.293,1.293,0,0,0,.984-.435h0l-.29-.259.281.268a1.281,1.281,0,0,0,.349-.893v-.082h0a1.307,1.307,0,0,0-.467-.93h0l0,0-.24.3.259-.29a1.282,1.282,0,0,0-.866-.322h0a1.326,1.326,0,0,0-.93.376l.277.277-.259-.29h0l0,0h0a1.35,1.35,0,0,0-.4.962h0a1.163,1.163,0,0,0,.023.227l.109.63.508-.39-.227-.3.159.34.068-.041-.227-.3.159.34-.163-.349v.386a.375.375,0,0,0,.163-.036l-.163-.349v0l-.177.345a.394.394,0,0,0,.177.045v-.386l-.177.345.177-.345-.295.254a.39.39,0,0,0,.118.091l.177-.345-.295.254.295-.254-.372.1a.428.428,0,0,0,.077.15l.295-.254-.372.1.372-.1H60.54a.327.327,0,0,0,.014.1l.372-.1h0l-.367-.1a.312.312,0,0,0-.014.1h.381l-.367-.1.367.1-.3-.231a.413.413,0,0,0-.063.127l.367.1-.3-.231.308.231-.218-.317a.421.421,0,0,0-.091.086l.308.231-.218-.317.218.322V39a.386.386,0,0,0-.218.068l.218.322v0l.127-.367A.417.417,0,0,0,60.925,39v.386l.127-.367-.127.363.286-.263a.4.4,0,0,0-.159-.1l-.127.363.286-.263-.281.259.363-.132a.372.372,0,0,0-.077-.127l-.281.259.363-.132-.349.127.367-.059a.29.29,0,0,0-.018-.068l-.349.127.367-.059-.1-.635-.513.386a4.353,4.353,0,0,0-.354.308c-.24.227-.54.535-.875.884-.5.522-1.075,1.125-1.6,1.66-.263.268-.508.513-.726.721s-.408.372-.54.472l-.513.386.581.277.163-.34-.254.277a.573.573,0,0,0,.091.063l.163-.34-.254.277.259-.286-.336.19a.461.461,0,0,0,.077.1l.259-.286-.336.19.336-.2h-.386a.437.437,0,0,0,.05.2l.336-.2h0l-.358-.15a.421.421,0,0,0-.032.15h.386l-.358-.15.358.15-.231-.308a.357.357,0,0,0-.122.159l.358.15-.231-.308.231.308-.1-.372a.339.339,0,0,0-.136.068l.231.308-.1-.372.1.372v-.381a.242.242,0,0,0-.1.014l.1.372v0l.168-.345a.338.338,0,0,0-.168-.036v.386l.168-.345-.168.349.3-.24a.427.427,0,0,0-.136-.109l-.168.349.3-.24-.3.24.363-.132a.355.355,0,0,0-.059-.109l-.3.24.363-.132-.363.132h.386a.471.471,0,0,0-.023-.132l-.363.132h0l.358.145a.413.413,0,0,0,.027-.145h-.386l.358.145-.354-.145.281.259a.348.348,0,0,0,.073-.113l-.354-.145.281.259-.277-.254.222.3a.336.336,0,0,0,.054-.05l-.277-.254.222.3.522-.386-.585-.277a1.372,1.372,0,0,0-.59-.136h0a1.327,1.327,0,0,0-.39.059h0a.388.388,0,1,0,.218.744h0l.635-.19-.476-.463s-.136-.132-.354-.345c-.322-.313-.821-.8-1.293-1.261s-.912-.893-1.12-1.107l-.435-.444-.2.59.358.127-.295-.236a.435.435,0,0,0-.063.109l.358.127-.295-.236.3.24-.2-.331a.437.437,0,0,0-.1.091l.3.24-.2-.331.2.331v-.386a.431.431,0,0,0-.2.054l.2.331v0l.154-.354a.425.425,0,0,0-.154-.032v.386l.154-.354-.154.354.3-.24a.386.386,0,0,0-.15-.113l-.154.354.3-.24-.3.24.367-.113a.441.441,0,0,0-.068-.127l-.3.24.367-.113-.367.113h.381a.3.3,0,0,0-.018-.113l-.367.113h0l.376.077a.579.579,0,0,0,.009-.077h-.386l.376.077-.376-.077.286.263a.388.388,0,0,0,.1-.181l-.376-.077.286.263-.286-.263.154.354a.455.455,0,0,0,.127-.091l-.286-.263.154.354-.154-.354v.386a.376.376,0,0,0,.154-.032l-.154-.354v0l-.122.367a.421.421,0,0,0,.122.023v-.386l-.122.367.122-.363-.227.313a.364.364,0,0,0,.1.05l.122-.363-.227.313.218-.3-.268.263s.023.023.045.041l.218-.3-.268.263.44.444.2-.594a1.178,1.178,0,0,0,.068-.34l-.39-.018.386.032h0v0h0v-.1h0a1.316,1.316,0,0,0-.585-1.093h-.009l-.009-.014-.2.336.222-.317a1.326,1.326,0,0,0-.748-.231h0a1.294,1.294,0,0,0-.567.127l.168.349-.163-.354h0l.163.354-.159-.354a1.279,1.279,0,0,0-.567.5,1.346,1.346,0,0,0-.2.708h0a1.155,1.155,0,0,0,.036.29l.145.617.485-.408-.245-.29.172.336a.276.276,0,0,0,.073-.05l-.245-.29.172.336-.172-.345v.386a.338.338,0,0,0,.172-.041l-.172-.345v0l-.2.336a.358.358,0,0,0,.2.05v-.386l-.2.336.2-.336-.3.236a.408.408,0,0,0,.113.1l.2-.336-.3.236.3-.236-.376.1a.358.358,0,0,0,.068.141l.3-.236-.376.1.372-.1h-.386a.266.266,0,0,0,.014.1l.372-.1h0l-.34-.172a.358.358,0,0,0-.041.172h.381l-.34-.172.345.172-.259-.286a.414.414,0,0,0-.082.109l.345.172-.259-.286.263.286-.163-.354a.294.294,0,0,0-.1.068l.263.286-.163-.354.163.354v-.386a.376.376,0,0,0-.163.036l.163.354v0l.127-.367a.393.393,0,0,0-.127-.023v.386l.127-.367-.127.367.277-.272a.387.387,0,0,0-.15-.1l-.127.367.277-.272-.272.268.354-.154a.453.453,0,0,0-.077-.118l-.272.268.354-.154-.34.15.363-.086a.368.368,0,0,0-.023-.063l-.34.15.363-.086-.145-.617-.485.408c-.127.1-.272.249-.449.422-.3.308-.689.712-1.1,1.161-.621.671-1.324,1.442-1.937,2.1-.308.331-.594.635-.839.884s-.449.449-.576.553l-.481.4.576.249.15-.345-.245.286a.545.545,0,0,0,.1.064l.15-.345-.245.286.254-.29-.331.2a.363.363,0,0,0,.082.1l.254-.29-.331.2.336-.2H46.28a.4.4,0,0,0,.054.2l.336-.2h0l-.358-.154a.425.425,0,0,0-.032.154h.386l-.358-.154.354.154-.236-.308a.413.413,0,0,0-.122.154l.354.154-.236-.308.231.3-.1-.372a.339.339,0,0,0-.136.068l.231.3-.1-.372.1.367V45.3a.265.265,0,0,0-.1.014l.1.367v0l.172-.34a.336.336,0,0,0-.172-.041v.386l.172-.34-.177.345.313-.227a.387.387,0,0,0-.136-.118l-.177.345.313-.227-.313.227h.386a.4.4,0,0,0-.073-.227l-.313.227h0l.363.136a.38.38,0,0,0,.027-.136h-.386l.363.136-.358-.136.295.245a.325.325,0,0,0,.063-.109l-.358-.136.295.245-.286-.24.24.29.05-.05-.286-.24.24.29.49-.4-.585-.254a1.359,1.359,0,0,0-.522-.109h0a1.328,1.328,0,0,0-.939.386h0l.277.277-.268-.281a1.3,1.3,0,0,0-.4.948h0a1.268,1.268,0,0,0,.136.581h0l.349-.172.349-.172a.51.51,0,0,1-.054-.231h0a.526.526,0,0,1,.159-.386h0l0-.009h0A.53.53,0,0,1,46.284,46h0v0h0v0h0a.5.5,0,0,1,.213.045l.154-.358-.249-.3a.357.357,0,0,0-.073.082.5.5,0,0,0-.045.086.386.386,0,0,0-.027.141.389.389,0,0,0,.177.331.3.3,0,0,0,.127.05.294.294,0,0,0,.086.009.335.335,0,0,0,.163-.036.4.4,0,0,0,.127-.1.408.408,0,0,0,.068-.109.425.425,0,0,0,.032-.154.383.383,0,0,0-.054-.2.376.376,0,0,0-.113-.122.434.434,0,0,0-.073-.041l-.154.358.249.3c.127-.109.281-.254.458-.431.313-.308.7-.721,1.116-1.17.626-.676,1.324-1.447,1.937-2.1.3-.331.59-.63.83-.88s.44-.44.562-.544l-.249-.3-.376.091a.421.421,0,0,0,.05.122.416.416,0,0,0,.1.109.409.409,0,0,0,.1.05.417.417,0,0,0,.127.023.361.361,0,0,0,.163-.036.41.41,0,0,0,.145-.113.3.3,0,0,0,.063-.127.46.46,0,0,0,.018-.118.326.326,0,0,0-.009-.086.383.383,0,0,0-.1-.19.368.368,0,0,0-.132-.086.43.43,0,0,0-.145-.027.373.373,0,0,0-.177.041.456.456,0,0,0-.077.05l.249.295.376-.086a.585.585,0,0,1-.014-.113h0a.6.6,0,0,1,.086-.3.5.5,0,0,1,.222-.2h0a.557.557,0,0,1,.231-.05h0a.558.558,0,0,1,.3.091l.009.009.014.009.2-.336-.218.322a.557.557,0,0,1,.24.449h0v.041h0v.018a.426.426,0,0,1-.027.127l.367.127.277-.272a.406.406,0,0,0-.077-.059.414.414,0,0,0-.077-.036.456.456,0,0,0-.127-.023.379.379,0,0,0-.2.059.344.344,0,0,0-.109.1.437.437,0,0,0-.063.136.357.357,0,0,0-.009.091.35.35,0,0,0,.041.177.431.431,0,0,0,.091.118.374.374,0,0,0,.1.063.425.425,0,0,0,.154.032.431.431,0,0,0,.2-.054.388.388,0,0,0,.132-.127.236.236,0,0,0,.036-.082l-.367-.127-.277.272c.145.145.39.39.676.671.862.844,2.1,2.05,2.1,2.05l.272-.277-.109-.372h-.009a.39.39,0,0,0-.259.485.394.394,0,0,0,.485.263h0a.583.583,0,0,1,.163-.027h0a.63.63,0,0,1,.254.059l.168-.349-.231-.313a.767.767,0,0,0-.082.077.281.281,0,0,0-.05.091.409.409,0,0,0,0,.281.436.436,0,0,0,.113.168.392.392,0,0,0,.154.082.434.434,0,0,0,.1.014.284.284,0,0,0,.159-.036.406.406,0,0,0,.132-.1.319.319,0,0,0,.068-.109.421.421,0,0,0,.032-.15.387.387,0,0,0-.159-.317.3.3,0,0,0-.068-.041l-.168.349.236.308a5.5,5.5,0,0,0,.444-.381c.29-.263.626-.6.984-.966.535-.544,1.107-1.152,1.6-1.66.245-.254.467-.481.653-.662.091-.091.177-.172.245-.236s.127-.113.163-.141l-.236-.308-.386.063a.363.363,0,0,0,.045.132.451.451,0,0,0,.1.122.324.324,0,0,0,.1.054.421.421,0,0,0,.132.023.414.414,0,0,0,.163-.036.384.384,0,0,0,.141-.109.476.476,0,0,0,.068-.118.417.417,0,0,0,.014-.222.364.364,0,0,0-.036-.1.435.435,0,0,0-.141-.15.364.364,0,0,0-.2-.054.42.42,0,0,0-.168.036.414.414,0,0,0-.073.045l.236.308.381-.068a.866.866,0,0,1-.009-.091h0a.578.578,0,0,1,.163-.4l-.268-.281.259.29h0l.009-.009.009-.009a.546.546,0,0,1,.381-.15h0a.521.521,0,0,1,.345.122l.009.009.009.009.24-.3-.245.3a.536.536,0,0,1,.181.381h0v.032a.52.52,0,0,1-.136.358h0l0,.014h0a.551.551,0,0,1-.649.113l-.213-.1-.19.141a5.534,5.534,0,0,0-.481.408c-.612.558-1.411,1.388-2.114,2.127-.354.367-.68.712-.948.984-.132.136-.249.254-.345.345a2.686,2.686,0,0,1-.2.181l.231.313.386-.063a.363.363,0,0,0-.045-.132.451.451,0,0,0-.1-.122.324.324,0,0,0-.1-.054.421.421,0,0,0-.132-.023.392.392,0,0,0-.3.141.407.407,0,0,0-.068.118.417.417,0,0,0-.014.222.363.363,0,0,0,.036.1.411.411,0,0,0,.145.15.391.391,0,0,0,.2.054.375.375,0,0,0,.163-.036.414.414,0,0,0,.073-.045l-.236-.308-.386.063c0,.041.009.077.009.1a.553.553,0,0,1-.054.24h0v.009a.54.54,0,0,1-.2.218.532.532,0,0,1-.281.082h-.036a.507.507,0,0,1-.295-.1.5.5,0,0,1-.19-.254h0a.56.56,0,0,1-.032-.19.52.52,0,0,1,.027-.168l-.367-.127-.286.263a.636.636,0,0,0,.082.068.453.453,0,0,0,.082.041.353.353,0,0,0,.127.023.4.4,0,0,0,.222-.068.453.453,0,0,0,.1-.1.367.367,0,0,0,.054-.132.326.326,0,0,0,.009-.086.4.4,0,0,0-.122-.286.517.517,0,0,0-.1-.073.376.376,0,0,0-.163-.036.409.409,0,0,0-.213.063.335.335,0,0,0-.122.127.291.291,0,0,0-.032.073l.367.127.286-.263-.023-.027-.177-.177c-.295-.29-.889-.871-1.433-1.406l-.739-.726c-.1-.1-.19-.19-.263-.259s-.122-.118-.145-.145l-.277.272.118.372a.4.4,0,0,0,.113-.054.406.406,0,0,0,.1-.1.388.388,0,0,0,.068-.218.342.342,0,0,0-.036-.159.359.359,0,0,0-.122-.15.339.339,0,0,0-.132-.063.421.421,0,0,0-.109-.014.238.238,0,0,0-.077.009.371.371,0,0,0-.181.091.39.39,0,0,0-.1.127.444.444,0,0,0-.036.163.427.427,0,0,0,.05.2.554.554,0,0,0,.059.082l.277-.272-.113-.372a.558.558,0,0,1-.163.027.507.507,0,0,1-.218-.045l-.154.358.254.295a.668.668,0,0,0,.073-.077.437.437,0,0,0,.045-.082.387.387,0,0,0,.023-.136A.4.4,0,0,0,52.385,41a.424.424,0,0,0-.1-.1.408.408,0,0,0-.127-.054.294.294,0,0,0-.086-.009.335.335,0,0,0-.163.036.4.4,0,0,0-.127.1.408.408,0,0,0-.068.109.425.425,0,0,0-.032.154.4.4,0,0,0,.054.2.335.335,0,0,0,.118.122.211.211,0,0,0,.073.036l.15-.358-.249-.3c-.15.127-.322.286-.517.481-.68.671-1.633,1.71-2.495,2.653-.431.472-.839.912-1.175,1.27-.168.177-.317.336-.44.458a3.039,3.039,0,0,1-.286.268l.249.3.376-.091a.477.477,0,0,0-.05-.122.375.375,0,0,0-.1-.109.4.4,0,0,0-.227-.073.361.361,0,0,0-.163.036.41.41,0,0,0-.145.113.288.288,0,0,0-.063.122.459.459,0,0,0-.018.118.326.326,0,0,0,.009.086.434.434,0,0,0,.1.2.368.368,0,0,0,.132.086.43.43,0,0,0,.145.027.373.373,0,0,0,.177-.041.456.456,0,0,0,.077-.05l-.249-.3-.376.086a.556.556,0,0,1,.018.127h.39l-.39-.009v.009h0a.251.251,0,0,1-.009.082l.381.082-.376-.1h0v.036a.557.557,0,0,1-.463.435h-.082a.556.556,0,0,1-.29-.086.5.5,0,0,1-.2-.218h0V46.8h0l-.349.172Zm.041-.413.39.009a.428.428,0,0,1,.331-.408.615.615,0,0,1,.091-.009.4.4,0,0,1,.163.032l.15-.358-.154.358.023.009h0l.027.014.227.113.227-.19h0c.109-.091.249-.227.431-.408.313-.313.735-.753,1.2-1.243.694-.735,1.483-1.578,2.127-2.263.322-.345.608-.649.83-.875.109-.113.2-.213.277-.281l.091-.091c.023-.023.041-.036.045-.041l.2-.163-.082-.281-.372.109.381-.082v-.018l-.009-.041-.376.1.381-.086V40.4l-.386.063.386-.054V40.38l-.39.054.386-.045v-.018h0v-.054l-.39.018.386.032v-.082l-.386-.054.381.073v-.018h0s0-.032.009-.05l-.376-.1.376.1.009-.032-.376-.1.372.113a.223.223,0,0,1,.018-.045l-.358-.154.349.168.014-.023h0a.27.27,0,0,0,.018-.036h0l.014-.023-.336-.2.327.209a.345.345,0,0,1,.032-.041v-.009l.018-.014-.313-.231.281.268.009-.009v-.009l.014-.009.027-.032h0l.023-.023-.272-.281.259.29.036-.027-.222-.317.213.327.027-.018-.213-.327.2.331s.027-.018.036-.023h0l.014-.009-.177-.345.168.349.036-.014-.127-.367.1.376.032-.009h0a.027.027,0,0,0,.023-.009h0l-.014-.059.014.059h0l-.014-.059.014.059h0a.145.145,0,0,0,.032,0h0l.027,0-.063-.386.041.386-.009-.082v.082h.009l-.009-.082v.082h.036l-.023-.39.014.39h.032l-.009-.15v.15h.009l-.009-.15v-.24l-.027.386h.091l.059-.386-.086.381h.027l0,.009h.009l.045.009h0a.118.118,0,0,1,.032.014h0c.018.009.032.009.036.014h0l.073-.172-.082.168h.009l.073-.168-.082.168h0l.05.027.222-.317-.24.308.014.014h.009l.009.014c.018.014.027.018.032.023h0l.077-.091-.082.086h0l.077-.086-.082.086h0l.018.023h0l.018.018h0l.05-.045-.054.045h0l.05-.045-.054.045h0l.045-.041-.045.036h0l.045-.036-.045.036a.112.112,0,0,1,.018.027l.308-.24-.308.236.014.018h0l.041-.027-.045.032h0l.041-.032-.045.032h0a.235.235,0,0,0,.014.023h0l.009.018h0v0a.192.192,0,0,1,.009.023h0a.191.191,0,0,0,.009.023h0l.009.023a.038.038,0,0,0,.009.027h0v.023h0V40.3h0v.023h0v.036l.39-.023h-.39V40.4l.381.063-.381-.073V40.4l0,.014h0v.032h0v.014l0,0-.009.027h0l0,.018v.009h0l-.009.027-.082.231.2.2h0c.1.1.29.29.544.535.381.372.88.862,1.324,1.293l.6.59c.172.168.308.3.376.376l.172.177.268-.1h.014v0h0a.046.046,0,0,0,.023-.009h.014v0l-.009-.036.009.036h0l-.009-.036.009.036-.082-.381.073.381h.018l.014,0H56.3l.036,0-.059-.386.041.386h.122l.045-.386-.054.386.032-.2-.041.2h.009l.032-.2-.041.2.018-.1-.023.1h0l.018-.1-.023.1h.009l.027.009h.05l.1-.376-.109.372.023-.082-.027.082h0l.023-.082-.027.082a.07.07,0,0,1,.027.009h0l.027.009.145-.358-.154.358.023.009.023.014h0l.014.009.027.014.218.118.213-.159.018-.014h0a5.232,5.232,0,0,0,.4-.345c.268-.249.594-.576.943-.934.531-.54,1.116-1.157,1.637-1.687.259-.263.5-.508.712-.708a6.228,6.228,0,0,1,.494-.435l.2-.15-.059-.277v-.018h0v-.023l0-.018-.386.059.386-.045v-.05H61l.39.018v-.077l-.386-.045.386.059v-.032h0A.085.085,0,0,1,61.4,39.1h0l.009-.027-.376-.1.372.1a.3.3,0,0,1,.041-.1l-.336-.19.331.2.009-.018h0l.023-.036h0l.014-.018-.308-.236.3.245s.023-.027.032-.036h0v-.009l-.027-.027.027.027h0l-.027-.027.027.027.018-.018h0l.014-.018-.259-.29.245.3.032-.023-.209-.327.2.331h0v0h0a.382.382,0,0,1,.068-.036l-.145-.363.127.367h.009l0,0h0a.217.217,0,0,1,.077-.023l-.077-.381.054.386h.041c.023,0,.045,0,.059,0v-.39l-.032.386H61.8a.344.344,0,0,1,.073,0l.063-.386-.068.381a.306.306,0,0,1,.054.018h.009l.036.014.1-.376-.132.367a.382.382,0,0,1,.118.068l.009.009h.009a.347.347,0,0,0,.027.032l.281-.272-.29.259.009.009h0v.009l.023.023.308-.236-.317.222.014.023h0s.014.023.018.023l.336-.2-.34.19.014.027.34-.19-.34.186s.009.023.014.023l.354-.163-.358.154.014.032.358-.154-.358.145.009.023h0l0,.018h0l.009.032.372-.118-.381.082v.014h0v.014h0V39.1h0v.023h0v.027h0v.023l.39-.041-.39.023v.027h.39l-.386-.032v.036a.344.344,0,0,1,0,.068v.027l.386.05-.376-.1v.014l0,.009v.009c-.009.027-.014.045-.018.059h0l0,.018.367.127-.354-.163v.014l-.009.009v.009c-.014.023-.023.041-.032.054l.331.2-.327-.209h0l.327.213-.313-.231v.009l-.014.009V39.4s-.032.032-.05.054l.286.268-.277-.272-.018.018h0v0a.282.282,0,0,1-.082.063l.19.34-.168-.349h0l-.009,0h-.009a.171.171,0,0,1-.036.023l.154.358-.136-.363h-.009v0h0a.154.154,0,0,1-.036.014l.113.372-.1-.376h-.014l0,0h0a.289.289,0,0,1-.032.009l.077.381-.059-.386H61.9l-.032,0v0h0v0H61.8l.018.39v-.39h-.073l-.045.386.054-.386-.032.213.041-.213h-.009l-.032.213.041-.213-.014.077.018-.077h0l-.014.077.018-.077a.19.19,0,0,1-.032,0h0a.078.078,0,0,1-.032,0l-.1.376.1-.376h-.018l-.1.372.109-.372-.041.141.045-.136h0l-.041.136.045-.136-.009.023.009-.023h0l-.009.023.009-.023a.07.07,0,0,1-.027-.009h0a.189.189,0,0,0-.027-.009l-.145.358.154-.358-.023-.009-.023-.009h0l-.009,0-.023-.014L61.36,39.4l-.231.177a5.3,5.3,0,0,0-.431.367c-.3.272-.685.644-1.1,1.048-1.234,1.216-2.7,2.735-2.708,2.735l-.141.145.045.231v.023h0v.032l.39-.059-.386.05v.027l.386-.032-.39.018v.018h0v.05h0l.39-.018H56.8v.045h0v.014l.386.036L56.8,44.24v.027a.23.23,0,0,1-.009.041l.376.091L56.8,44.29l-.009.032v.018l-.014.027h0v0l.372.113-.363-.132a.246.246,0,0,1-.018.036h0V44.4l.1.05-.1-.054h0l.1.054-.1-.054h0a.328.328,0,0,0-.018.032h0a.2.2,0,0,0-.018.032h0l.141.082-.132-.091-.009.009.141.082-.132-.091h0s-.032.036-.059.063h0a.464.464,0,0,1-.19.1h0a.366.366,0,0,1-.086.014H56.38a.26.26,0,0,1-.054,0h-.032l-.045.386.073-.381a.429.429,0,0,1-.268-.181h0a.543.543,0,0,1-.045-.086h0a.576.576,0,0,1-.018-.068v-.014l-.009-.023-.376.1.386-.041h0v-.032a.4.4,0,0,1-.009-.068v-.036l-.386.032.39.023v-.063h0v-.032L55.6,44.1l.386.05-.054-.009.054.009h0l-.054-.009.054.009v-.023h0v-.014h0v-.009h0a.115.115,0,0,1,.009-.032h0l0-.018v-.014l.009-.018-.372-.109.358.15.014-.036.1-.227-.163-.181-.009-.009-.009-.009-.132-.132c-.254-.249-.821-.807-1.388-1.361S53.278,41,53.047,40.77l-.172-.177-.268.1H52.6l-.032.009.1.376-.1-.376h-.023l0,.009h-.054l.059.39-.041-.386h-.113a.14.14,0,0,1-.036-.009l-.091.376.1-.376h-.014l-.018-.009h0a.035.035,0,0,1-.023-.009l-.136.363.145-.358-.027-.014-.018-.009h0l-.027-.014-.227-.109-.227.19h0a6.68,6.68,0,0,0-.49.458c-.662.653-1.637,1.714-2.531,2.68-.444.481-.871.939-1.22,1.311q-.265.279-.463.476c-.132.132-.236.227-.295.281l-.19.159.073.268h0v.018a.3.3,0,0,1,.018.109.421.421,0,0,1-.023.132v.014l-.009.027.376.1-.367-.122a.358.358,0,0,1-.127.172.489.489,0,0,1-.222.1l.027.19-.018-.19h-.014l.027.19-.018-.19v0h0v0h-.068l.009.1v-.1h-.009l.009.1v-.1h0a.329.329,0,0,1-.113-.018.423.423,0,0,1-.249-.2.415.415,0,0,1-.05-.2h0v-.009h0l-.39-.009-.39-.009v.023a1.177,1.177,0,0,0,.145.571,1.2,1.2,0,0,0,1.043.617h0a.638.638,0,0,0,.082,0h.018a.371.371,0,0,0,.063,0,1.271,1.271,0,0,0,.585-.249,1.12,1.12,0,0,0,.386-.54v-.014l.014-.027-.376-.1.367.122a1.187,1.187,0,0,0,.059-.376,1.142,1.142,0,0,0-.041-.3l-.376.1.381-.082v-.014l0-.009-.014-.05-.376.1.249.3c.109-.091.24-.222.408-.386.286-.29.662-.689,1.084-1.143.63-.676,1.352-1.47,2-2.154.322-.345.626-.662.889-.925s.481-.476.626-.594h0l.032-.027-.249-.3-.172.349.036.018h.009l.023.014.018.009h0l.036.014h0l0,0c.027.009.05.018.068.023h0l.023.009h.009l.032.009h.009c.036.009.068.014.091.018l.063-.386-.073.381h.023l.009,0H52.3c.045,0,.1.009.145.009a.578.578,0,0,0,.127-.009h.009l.036,0h.041l.032-.009H52.7l.045-.014h0c.018,0,.041-.014.073-.023l-.122-.367.118.372h.018l.009-.009.045-.018-.132-.367-.277.272.68.68c.444.435.989.975,1.429,1.406.218.213.413.4.549.54.068.068.122.122.163.159a.423.423,0,0,1,.045.045l.009.009h0l.172-.168-.172.168h0l.172-.168-.172.168.263-.259-.277.249.009.009.263-.259-.277.249.29-.259-.358-.15-.014.036-.009.018v.009h0a.914.914,0,0,0-.032.1l.376.1-.372-.109V43.9l-.009.014-.009.045h0v.018h0c0,.009,0,.027-.009.059v.041l.386.032-.386-.036c0,.027,0,.059,0,.1h.39l-.39-.018v.082l.39-.032h-.39a.9.9,0,0,0,.018.19l.386-.063-.386.041h0v.032l.009.036.376-.1-.381.073a1.033,1.033,0,0,0,.05.186h0a1.23,1.23,0,0,0,.136.268h0a1.2,1.2,0,0,0,.762.5h.014l.018,0,.045-.386-.068.381a.951.951,0,0,0,.168.018l.014-.39-.018.39h.059a1.17,1.17,0,0,0,.268-.032h0a1.2,1.2,0,0,0,.54-.29h0a1.056,1.056,0,0,0,.172-.2h0c.014-.023.027-.041.032-.05v-.009h0l-.086-.05.086.05h0l-.086-.05.086.05h0s.023-.032.045-.077l-.349-.172.345.181a.881.881,0,0,0,.059-.136v-.009l.009-.018h0l.009-.027v-.023h.009l.009-.032v-.009l0-.009c.009-.045.018-.086.023-.127l-.386-.045.381.063v-.05h0c0-.041,0-.082,0-.122v-.027h0v-.05h0v-.036a.2.2,0,0,0-.009-.059h0l0-.041h0l0-.032V43.94l-.009-.05-.381.077.281.272s.054-.054.15-.154c.331-.34,1.17-1.2,2.009-2.041.422-.417.839-.835,1.193-1.17.177-.168.34-.317.476-.44s.245-.218.313-.268l.032-.027-.236-.308-.186.34.036.018h.014l.027.018.027.014h0l.036.018h0a.684.684,0,0,1,.068.027h0l.05.018h0l.023,0h0l.091.018h0l.027-.141-.032.141h0l.027-.141-.032.141v0h0v0a.514.514,0,0,0,.054.009h.014l.045-.386-.05.386c.05,0,.1.009.159.009h.132A.307.307,0,0,0,62,40.312l-.063-.386.059.386h.027l.009,0h.009a.987.987,0,0,0,.1-.027l-.109-.372.1.376h.014l.009,0h.009l.1-.036-.145-.358.136.363h.009l.009,0h.009l.109-.054-.186-.34.168.349h0l.009-.009h.009a1.434,1.434,0,0,0,.272-.218l-.286-.263.277.272.018-.018h0v0a1,1,0,0,0,.127-.163l-.327-.209.313.231v-.009l.014-.014.009-.018h0a1.221,1.221,0,0,0,.086-.172l-.358-.145.354.163v-.014l.014-.018.009-.032-.367-.127.363.136a1.8,1.8,0,0,0,.05-.177l-.381-.077.376.1V39.4l.009-.023v-.036l-.381-.05.386.063c.009-.059.014-.122.018-.181h-.39l.386.027v-.145l-.386.041.386-.032a.283.283,0,0,0,0-.054h0s0-.045-.009-.068h0l-.014-.054-.376.091.381-.077v-.009h0v-.014l0-.018-.014-.041-.372.118.372-.109a.357.357,0,0,0-.018-.054v0A.551.551,0,0,1,62.9,38.7h0l-.014-.041h0v-.009c-.014-.027-.023-.05-.032-.068h0l-.018-.032h0v-.009c-.018-.032-.036-.054-.045-.073h0l-.014-.023h0v-.009c-.023-.032-.05-.059-.073-.086l-.286.263.29-.259-.009-.009v-.009l-.014,0c-.027-.027-.059-.059-.1-.091l-.245.3.259-.29a1.061,1.061,0,0,0-.376-.222h-.014l-.041-.018-.1.376.118-.372a.717.717,0,0,0-.159-.041h0a1.36,1.36,0,0,0-.172-.014l-.014.39.032-.386h-.063a.914.914,0,0,0-.163.014h0a.194.194,0,0,0-.054.009l.068.381-.054-.386h-.027a1.757,1.757,0,0,0-.2.059l.136.363-.127-.367h-.009l-.009,0h-.009a1.33,1.33,0,0,0-.2.1l.209.327-.2-.331h0l0,0h0c-.032.023-.068.05-.1.077h0l-.018.023.259.29-.254-.295s-.036.032-.063.059l.277.272-.268-.281c-.041.041-.077.082-.1.113h0l-.014.023h0c-.023.032-.05.068-.073.1h0l-.009.018h0v.009a1.247,1.247,0,0,0-.113.268h0l-.009.041h0c-.009.032-.014.068-.023.1h0l0,.036h0v.014a1.116,1.116,0,0,0-.009.127h.39l-.39-.014v.032a.757.757,0,0,0,.009.145h0v.036h0l0,.032v.027l0,.009.009.05.381-.082-.236-.308c-.122.091-.254.209-.413.354-.272.254-.6.581-.957.943-.531.544-1.12,1.161-1.637,1.687-.259.263-.5.5-.7.7a6.053,6.053,0,0,1-.481.426l-.018.014h0l-.014.009.236.308L57,43.178l-.036-.018h-.009l-.027-.018-.027-.014h-.009l-.036-.018h0c-.032-.014-.054-.018-.063-.023h0a.292.292,0,0,0-.054-.018h0l-.023-.009h0c-.041-.009-.073-.014-.086-.018h0l-.023.132.027-.127h0l-.023.127.027-.127a.514.514,0,0,0-.054-.009h-.014l-.045.386.05-.386a.906.906,0,0,0-.159-.009,1.147,1.147,0,0,0-.127,0h-.009l-.041.009H56.2l-.032.009h0c-.027,0-.045.014-.059.014l.1.376-.1-.376-.073.023.122.367-.113-.372h-.018l-.009.009-.05.018.127.367.277-.272c-.109-.109-.313-.313-.571-.567-.39-.381-.893-.871-1.333-1.3-.222-.213-.426-.413-.59-.576s-.295-.29-.358-.354h0L53.5,40.38l-.277.272.367.132.009-.027h0l0-.009h0l.009-.027h0l.009-.027h0l0-.018h0l.009-.032.009-.032V40.6l.014-.036h0l0-.018h0v-.027h0V40.5a.821.821,0,0,0,.009-.113l-.39-.014.386.032v-.145l-.39.023.39-.009v-.063h0a.683.683,0,0,0-.009-.091h0s-.009-.045-.014-.063h0a.383.383,0,0,0-.023-.077.4.4,0,0,0-.023-.068h0c-.009-.032-.023-.054-.027-.073h0s-.018-.041-.032-.068h0c-.014-.027-.027-.05-.032-.059h0s-.023-.041-.041-.068h0q-.034-.048-.041-.054h0a.537.537,0,0,0-.05-.059h0c-.027-.032-.05-.05-.054-.059h0l-.05-.05h0a1.2,1.2,0,0,0-.1-.077l-.222.317.24-.308-.014-.014h-.009l-.009-.014A.8.8,0,0,0,53,39.237h0a.359.359,0,0,0-.059-.023h-.014v0l-.018.054.023-.05h0l-.018.05.023-.05h0s-.041-.018-.1-.036h0a.706.706,0,0,0-.136-.032l-.068.381.086-.381h-.027l-.014-.009h-.014a1.011,1.011,0,0,0-.145-.014l-.014.39.027-.386h-.1v0h0l0,.1v-.1h0s-.027,0-.073,0h-.009l-.036.009.063.386-.054-.386s-.054.009-.1.018h0a.666.666,0,0,0-.086.023l.113.372-.1-.376-.032.009h-.009l-.009,0c-.041.014-.082.032-.122.05h0l-.014.009.177.345-.163-.354c-.045.023-.082.041-.118.063h0l-.032.023h0l0,0a.816.816,0,0,0-.109.086h0l-.027.027.272.281-.268-.281a.713.713,0,0,0-.082.086l.295.254-.281-.268-.009.009-.018.018-.023.027.313.231-.3-.245c-.027.036-.054.073-.082.113h0l-.018.036h0a.682.682,0,0,0-.05.1h0l-.014.023h0v.014c-.018.045-.032.086-.045.127h0l-.009.036h0v0c-.009.036-.018.082-.027.127l.386.059-.381-.073v.032c-.009.054-.009.1-.014.145l.39.009-.386-.032v.113h0a.3.3,0,0,0,0,.068h0l0,.041h0v.009a.312.312,0,0,0,.009.059h0l.009.041h0v.018l.014.054.372-.109-.249-.3c-.041.036-.082.073-.136.127-.1.1-.236.236-.4.413-.59.617-1.56,1.665-2.463,2.622-.449.476-.884.934-1.238,1.3-.177.181-.336.345-.467.472s-.236.227-.295.277h0l-.027.027.249.3.172-.349-.036-.018h-.009l-.023-.014-.018-.009h0a1.169,1.169,0,0,0-.463-.091,1.137,1.137,0,0,0-.249.027,1.2,1.2,0,0,0-.943,1.157h0l.39.009Z" transform="translate(-44.96 -33.658)" fill="#353448"/>
    <path id="Path_3499" data-name="Path 3499" d="M46.886,47.9a.867.867,0,0,1-.78-.49h0a.838.838,0,0,1-.086-.381.875.875,0,0,1,.875-.875.9.9,0,0,1,.367.077l4.985-5.157a.864.864,0,0,1-.036-.245.878.878,0,0,1,.5-.8.838.838,0,0,1,.367-.082.868.868,0,0,1,.49.15.882.882,0,0,1,.381.717v.073a.692.692,0,0,1-.059.249l2.821,2.771a.858.858,0,0,1,.3-.054.923.923,0,0,1,.413.1l4.177-4.064a.783.783,0,0,1-.023-.2.874.874,0,0,1,.268-.635.874.874,0,0,1,1.479.635.842.842,0,0,1-.227.585h0a.838.838,0,0,1-.644.281.9.9,0,0,1-.408-.1L57.876,44.52a1.135,1.135,0,0,1,.023.213.832.832,0,0,1-.1.395.872.872,0,0,1-.771.476h-.041a.877.877,0,0,1-.789-.576.964.964,0,0,1-.05-.3.877.877,0,0,1,.054-.3L53.39,41.636a.852.852,0,0,1-.3.054.838.838,0,0,1-.367-.082l-4.989,5.157a.839.839,0,0,1,.036.254.609.609,0,0,1-.018.159.878.878,0,0,1-.748.7h0a.881.881,0,0,1-.109.009h0Z" transform="translate(-45.539 -34.161)" fill="#353448"/>
    <path id="Path_3500" data-name="Path 3500" d="M62.223,38.784a.653.653,0,0,1,.44.163h0a.683.683,0,0,1,.054.971h0a.653.653,0,0,1-.5.218.677.677,0,0,1-.395-.122l-.041-.027-4.368,4.25.014.045a.782.782,0,0,1,.032.227.652.652,0,0,1-.073.3h0a.684.684,0,0,1-.6.372h-.032a.677.677,0,0,1-.649-.68.6.6,0,0,1,.077-.3l.023-.041L53.2,41.178l-.041.023a.674.674,0,0,1-.3.068h0a.688.688,0,0,1-.363-.1l-.041-.027L47.278,46.49l.014.041a.772.772,0,0,1,.05.263.337.337,0,0,1-.014.118h0a.685.685,0,0,1-.581.544h0c-.027,0-.059,0-.086,0h0a.687.687,0,0,1-.608-.381h0a.65.65,0,0,1-.068-.29.668.668,0,0,1,.2-.485h0a.665.665,0,0,1,.476-.2h0a.661.661,0,0,1,.358.1l.041.027,5.18-5.352-.018-.045a.657.657,0,0,1-.05-.245.69.69,0,0,1,.39-.621h0a.645.645,0,0,1,.29-.063.664.664,0,0,1,.381.118h0a.674.674,0,0,1,.295.558v.054h0a.881.881,0,0,1-.077.277l-.014.036,3,2.953.041-.023a.712.712,0,0,1,.7.054l.036.027,4.368-4.25-.014-.045a.677.677,0,0,1,.172-.708h0a.65.65,0,0,1,.472-.19m0-.39a1.062,1.062,0,0,0-.739.295,1.073,1.073,0,0,0-.327.776.687.687,0,0,0,.009.136l-4.009,3.9a1.138,1.138,0,0,0-.367-.063,1.1,1.1,0,0,0-.245.027l-2.653-2.608a1.134,1.134,0,0,0,.032-.186V40.58a1.07,1.07,0,0,0-1.066-1.066,1.1,1.1,0,0,0-.454.1,1.083,1.083,0,0,0-.617.975.862.862,0,0,0,.018.186l-4.821,4.985a1.025,1.025,0,0,0-.313-.045,1.067,1.067,0,0,0-.753.308,1.051,1.051,0,0,0-.317.762,1.007,1.007,0,0,0,.109.463h0a1.069,1.069,0,0,0,.952.6.687.687,0,0,0,.136-.009,1.059,1.059,0,0,0,.916-.862,1.057,1.057,0,0,0,0-.39L52.539,41.6a1.054,1.054,0,0,0,.317.045,1.1,1.1,0,0,0,.245-.027l2.653,2.622a1.139,1.139,0,0,0-.032.249,1.117,1.117,0,0,0,.063.367,1.074,1.074,0,0,0,.957.7h.05a1.082,1.082,0,0,0,.948-.585,1.016,1.016,0,0,0,.113-.481.78.78,0,0,0-.009-.145l4.009-3.9a1.091,1.091,0,0,0,.363.063,1.055,1.055,0,0,0,.789-.345,1.032,1.032,0,0,0,.277-.717,1.061,1.061,0,0,0-1.066-1.066Z" transform="translate(-45.31 -33.926)" fill="#fff"/>
  </g>
</svg>
