<svg xmlns="http://www.w3.org/2000/svg" width="21.5" height="21.5" viewBox="0 0 21.5 21.5">
  <g id="essentials_security_face-id" data-name="essentials/security/face-id" transform="translate(0.25 0.25)">
    <path id="Fill-23" d="M3.618,10.416A.618.618,0,0,1,3,9.8V7.327A4.328,4.328,0,0,1,7.324,3H9.794a.618.618,0,1,1,0,1.235H7.324A3.092,3.092,0,0,0,4.235,7.327V9.8a.618.618,0,0,1-.618.618m19.765,0a.618.618,0,0,1-.618-.618V7.327a3.092,3.092,0,0,0-3.088-3.088H17.206a.618.618,0,0,1,0-1.235h2.471A4.328,4.328,0,0,1,24,7.327V9.8a.618.618,0,0,1-.618.618M9.794,12.886a.618.618,0,0,1-.618-.618V9.8a.618.618,0,1,1,1.235,0v2.471a.618.618,0,0,1-.618.618m7.412,0a.618.618,0,0,1-.618-.618V9.8a.618.618,0,1,1,1.235,0v2.471a.618.618,0,0,1-.618.618m-4.941,2.471a.618.618,0,1,1,0-1.235.619.619,0,0,0,.618-.618V9.8a.618.618,0,1,1,1.235,0V13.5a1.855,1.855,0,0,1-1.853,1.853M13.5,19.063a4.814,4.814,0,0,1-3.526-1.416.618.618,0,0,1,.875-.875A3.56,3.56,0,0,0,13.5,17.827a3.56,3.56,0,0,0,2.651-1.055.618.618,0,0,1,.875.875A4.814,4.814,0,0,1,13.5,19.063M9.794,24H7.324A4.328,4.328,0,0,1,3,19.68V17.21a.618.618,0,0,1,1.235,0V19.68a3.092,3.092,0,0,0,3.088,3.088H9.794a.618.618,0,0,1,0,1.235m9.882,0H17.206a.618.618,0,0,1,0-1.235h2.471a3.092,3.092,0,0,0,3.088-3.088V17.21a.618.618,0,0,1,1.235,0V19.68A4.328,4.328,0,0,1,19.676,24" transform="translate(-3 -3.004)" fill="#6f6bb2" stroke="#6f6bb2" stroke-width="0.5" fill-rule="evenodd"/>
  </g>
</svg>
