<svg xmlns="http://www.w3.org/2000/svg" width="28.429" height="33.691" viewBox="0 0 28.429 33.691">
  <g id="customer-satisfaction" transform="translate(-46.73 -8)">
    <path id="Path_3543" data-name="Path 3543" d="M349.847,308.664a2.359,2.359,0,0,1,1.352.737l3.546-2.4a1.131,1.131,0,0,0-.13-.263,1.106,1.106,0,0,0-.715-.479,1.054,1.054,0,0,0-.8.166Z" transform="translate(-282.528 -277.986)" fill="#6f6bb2"/>
    <path id="Path_3544" data-name="Path 3544" d="M240.625,305.248l4.1-2.816a.878.878,0,0,0-.059-.1.864.864,0,0,0-.559-.365.847.847,0,0,0-.642.131l-3.948,2.7.419.187A6.393,6.393,0,0,0,240.625,305.248Z" transform="translate(-179.692 -273.982)" fill="#6f6bb2"/>
    <path id="Path_3545" data-name="Path 3545" d="M277.6,301.545l.892-.239,4.061-2.792a1.132,1.132,0,0,0-.071-.126,1.034,1.034,0,0,0-.667-.445.991.991,0,0,0-.754.154l-5.311,3.649A5.829,5.829,0,0,0,277.6,301.545Z" transform="translate(-213.466 -270.231)" fill="#6f6bb2"/>
    <path id="Path_3546" data-name="Path 3546" d="M74.953,321.707a1.214,1.214,0,0,0-1.683-.325l-4.108,2.776q.021.063.038.128a2.349,2.349,0,0,1-1.658,2.87l-7.61,2.04a.485.485,0,1,1-.251-.938l7.61-2.04a1.373,1.373,0,1,0-.71-2.652l-2.194.588a6.569,6.569,0,0,1-4.539-.36l-2.12-.946a6.135,6.135,0,0,0-4.244-.336,14.825,14.825,0,0,0-3.338,1.516,11.276,11.276,0,0,1-2.385,1.121l-1.031.277v8.167l2.138-.573a24.013,24.013,0,0,1,4.366.022l.737.106a3.5,3.5,0,0,0,1.481-.088c.312-.083.779-.2,1.319-.335,2.241-.561,6.413-1.6,7.373-2.252l10.484-7.084a1.217,1.217,0,0,0,.325-1.683Z" transform="translate(0 -291.903)" fill="#6f6bb2"/>
    <path id="Path_3547" data-name="Path 3547" d="M96.487,188.367h4.322a.485.485,0,0,0,.485-.485v-4.843a.485.485,0,0,0-.485-.485H96.487a.485.485,0,0,0-.485.485v4.843A.485.485,0,0,0,96.487,188.367Z" transform="translate(-45.925 -162.697)" fill="#6f6bb2"/>
    <path id="Path_3548" data-name="Path 3548" d="M205.816,133.856v-8.78a.485.485,0,0,0-.485-.485h-4.32a.485.485,0,0,0-.485.485v8.78a.485.485,0,0,0,.485.485h4.32A.485.485,0,0,0,205.816,133.856Z" transform="translate(-143.348 -108.671)" fill="#6f6bb2"/>
    <path id="Path_3549" data-name="Path 3549" d="M287.129,13.338h.763V25.185a.485.485,0,0,0,.485.485H292.7a.485.485,0,0,0,.485-.485V13.338h.763a.485.485,0,0,0,.383-.784l-3.408-4.368A.485.485,0,0,0,290.539,8h0a.486.486,0,0,0-.383.187l-3.41,4.368a.485.485,0,0,0,.383.784Z" transform="translate(-223.617 0)" fill="#6f6bb2"/>
    <path id="Path_3550" data-name="Path 3550" d="M195.372,11.884l-.225,1.568a.485.485,0,0,0,.695.5l1.421-.7,1.423.7a.485.485,0,0,0,.694-.505l-.227-1.568,1.1-1.136a.485.485,0,0,0-.265-.817l-1.561-.27-.74-1.4a.485.485,0,0,0-.859,0l-.74,1.4-1.561.27a.485.485,0,0,0-.265.817Z" transform="translate(-137.387)" fill="#6f6bb2"/>
    <path id="Path_3551" data-name="Path 3551" d="M97.245,11.884l-.225,1.568a.485.485,0,0,0,.695.5l1.421-.7,1.423.7a.485.485,0,0,0,.694-.505l-.227-1.568,1.105-1.136a.485.485,0,0,0-.265-.817l-1.561-.27-.74-1.4a.485.485,0,0,0-.859,0l-.74,1.4-1.561.27a.485.485,0,0,0-.265.817Z" transform="translate(-45.926)" fill="#6f6bb2"/>
  </g>
</svg>
