<svg id="like" xmlns="http://www.w3.org/2000/svg" width="27.813" height="31.583" viewBox="0 0 27.813 31.583">
  <g id="Group_5461" data-name="Group 5461" transform="translate(20.396 5.562)">
    <g id="Group_5460" data-name="Group 5460">
      <path id="Path_3169" data-name="Path 3169" d="M363.988,90.17h-1.854a.927.927,0,1,0,0,1.854h1.854a.927.927,0,0,0,0-1.854Z" transform="translate(-361.207 -90.17)" fill="#6f6bb2"/>
    </g>
  </g>
  <g id="Group_5463" data-name="Group 5463" transform="translate(11.125)">
    <g id="Group_5462" data-name="Group 5462">
      <path id="Path_3170" data-name="Path 3170" d="M213.591,2.366,212.664.512A.927.927,0,0,0,211,1.341l.927,1.854a.927.927,0,1,0,1.659-.829Z" transform="translate(-210.907 0)" fill="#6f6bb2"/>
    </g>
  </g>
  <g id="Group_5465" data-name="Group 5465" transform="translate(17.615 0)">
    <g id="Group_5464" data-name="Group 5464" transform="translate(0)">
      <path id="Path_3171" data-name="Path 3171" d="M318.382.1a.929.929,0,0,0-1.244.415l-.927,1.854a.927.927,0,0,0,1.659.829l.927-1.854A.927.927,0,0,0,318.382.1Z" transform="translate(-316.112 0)" fill="#6f6bb2"/>
    </g>
  </g>
  <g id="Group_5467" data-name="Group 5467" transform="translate(7.417 5.562)">
    <g id="Group_5466" data-name="Group 5466" transform="translate(0)">
      <path id="Path_3172" data-name="Path 3172" d="M153.574,90.17H151.72a.927.927,0,0,0,0,1.854h1.854a.927.927,0,0,0,0-1.854Z" transform="translate(-150.793 -90.17)" fill="#6f6bb2"/>
    </g>
  </g>
  <g id="Group_5469" data-name="Group 5469" transform="translate(0 14.895)">
    <g id="Group_5468" data-name="Group 5468">
      <path id="Path_3173" data-name="Path 3173" d="M35.192,241.468H31.483a.927.927,0,0,0-.927.927v14.834a.927.927,0,0,0,.927.927h3.708a.927.927,0,0,0,.927-.927V242.4A.927.927,0,0,0,35.192,241.468Z" transform="translate(-30.556 -241.468)" fill="#6f6bb2"/>
    </g>
  </g>
  <g id="Group_5471" data-name="Group 5471" transform="translate(7.417 5.624)">
    <g id="Group_5470" data-name="Group 5470" transform="translate(0)">
      <path id="Path_3174" data-name="Path 3174" d="M171.172,102.9a2.916,2.916,0,0,0-2.954-2.458h-7.228a16.007,16.007,0,0,0,.929-5.482,3.861,3.861,0,0,0-3.87-3.789h-.765a.927.927,0,0,0-.927.927c0,2.144-.835,6.013-2.409,7.588a10.27,10.27,0,0,1-3.153,2.037v13.911a21.657,21.657,0,0,0,7.647,1.5h6.065a2.819,2.819,0,0,0,2.78-3.806,2.782,2.782,0,0,0,1.854-3.708,2.783,2.783,0,0,0,1.34-4.538A2.776,2.776,0,0,0,171.172,102.9Z" transform="translate(-150.794 -91.172)" fill="#6f6bb2"/>
    </g>
  </g>
</svg>
