<svg id="_016-coin" data-name="016-coin" xmlns="http://www.w3.org/2000/svg" width="24" height="24" viewBox="0 0 24 24">
  <path id="Path_2033" data-name="Path 2033" d="M30,25a2.006,2.006,0,0,1,2,2h2a4,4,0,0,0-3-3.86V22H29v1.14A3.993,3.993,0,0,0,30,31a2,2,0,1,1-2,2H26a4,4,0,0,0,3,3.86V38h2V36.86A3.993,3.993,0,0,0,30,29a2,2,0,0,1,0-4Z" transform="translate(-18 -18)" fill="#989898"/>
  <path id="Path_2034" data-name="Path 2034" d="M30,18A12,12,0,1,0,42,30,12.01,12.01,0,0,0,30,18Zm0,22A10,10,0,1,1,40,30,10.016,10.016,0,0,1,30,40Z" transform="translate(-18 -18)" fill="#989898"/>
</svg>
