<svg id="Play" xmlns="http://www.w3.org/2000/svg" width="66" height="66" viewBox="0 0 66 66">
  <path id="Path_5" data-name="Path 5" d="M12.48,7.68,0,0V15.36Z" transform="translate(29.76 25.92)" fill="#fff"/>
  <g id="Path_2660" data-name="Path 2660" fill="none">
    <path d="M33,0A33,33,0,1,1,0,33,33,33,0,0,1,33,0Z" stroke="none"/>
    <path d="M 33 2 C 28.81414031982422 2 24.75455856323242 2.819358825683594 20.93400955200195 4.435310363769531 C 17.24279022216797 5.996570587158203 13.92731857299805 8.232059478759766 11.07968902587891 11.07968902587891 C 8.232059478759766 13.92731857299805 5.996570587158203 17.24279022216797 4.435310363769531 20.93400955200195 C 2.819358825683594 24.75455856323242 2 28.81414031982422 2 33 C 2 37.18585205078125 2.819358825683594 41.24543762207031 4.435310363769531 45.06597900390625 C 5.996570587158203 48.7572021484375 8.232059478759766 52.07268142700195 11.07968902587891 54.92031097412109 C 13.92731857299805 57.76794052124023 17.24279022216797 60.0034294128418 20.93400955200195 61.56468963623047 C 24.75455856323242 63.18064117431641 28.81414031982422 64 33 64 C 37.18585205078125 64 41.24543762207031 63.18064117431641 45.06597900390625 61.56468963623047 C 48.7572021484375 60.0034294128418 52.07268142700195 57.76794052124023 54.92031097412109 54.92031097412109 C 57.76794052124023 52.07268142700195 60.0034294128418 48.7572021484375 61.56468963623047 45.06597900390625 C 63.18064117431641 41.24543762207031 64 37.18585205078125 64 33 C 64 28.81414031982422 63.18064117431641 24.75455856323242 61.56468963623047 20.93400955200195 C 60.0034294128418 17.24279022216797 57.76794052124023 13.92731857299805 54.92031097412109 11.07968902587891 C 52.07268142700195 8.232059478759766 48.7572021484375 5.996570587158203 45.06597900390625 4.435310363769531 C 41.24543762207031 2.819358825683594 37.18585205078125 2 33 2 M 33 0 C 51.22539138793945 0 66 14.77460098266602 66 33 C 66 51.22539138793945 51.22539138793945 66 33 66 C 14.77460098266602 66 0 51.22539138793945 0 33 C 0 14.77460098266602 14.77460098266602 0 33 0 Z" stroke="none" fill="#fff"/>
  </g>
</svg>
