<svg xmlns="http://www.w3.org/2000/svg" width="21.4" height="21.4" viewBox="0 0 21.4 21.4">
  <g id="translate" transform="translate(0.2 0.2)">
    <path id="Path_1548" data-name="Path 1548" d="M317.683,301.465c-.05-.165-.254-.243-.463-.243a.448.448,0,0,0-.458.243l-1.064,3.468a.325.325,0,0,0-.011.055c0,.176.259.3.452.3.121,0,.215-.038.243-.143l.209-.733h1.263l.21.733c.027.1.121.143.242.143.193,0,.452-.127.452-.3a.243.243,0,0,0-.011-.055Zm-.943,2.382.48-1.693.48,1.693Zm0,0" transform="translate(-302.291 -288.26)" fill="#6f6bb2" stroke="#6f6bb2" stroke-width="0.4"/>
    <path id="Path_1549" data-name="Path 1549" d="M18.737,8.567h-6.3V5.874l2.049-1.463a.615.615,0,0,0,0-1L12.408,1.929A2.266,2.266,0,0,0,10.17,0H2.263A2.265,2.265,0,0,0,0,2.263v7.908a2.265,2.265,0,0,0,2.263,2.263h6.3v2.693L6.518,16.589a.615.615,0,0,0,0,1l2.074,1.481A2.266,2.266,0,0,0,10.83,21h7.908A2.265,2.265,0,0,0,21,18.737V10.83A2.265,2.265,0,0,0,18.737,8.567ZM2.263,11.2A1.033,1.033,0,0,1,1.23,10.17V2.263A1.033,1.033,0,0,1,2.263,1.23H10.17A1.033,1.033,0,0,1,11.2,2.263a.615.615,0,0,0,.258.5L13.066,3.91,11.46,5.057a.615.615,0,0,0-.258.5V8.567H10.83a2.265,2.265,0,0,0-2.263,2.263V11.2ZM19.77,18.737a1.033,1.033,0,0,1-1.032,1.032H10.83A1.033,1.033,0,0,1,9.8,18.737a.615.615,0,0,0-.258-.5L7.934,17.09,9.54,15.943a.615.615,0,0,0,.258-.5V10.83A1.033,1.033,0,0,1,10.83,9.8h7.908A1.033,1.033,0,0,1,19.77,10.83Zm0,0" fill="#6f6bb2" stroke="#6f6bb2" stroke-width="0.4"/>
    <path id="Path_1551" data-name="Path 1551" d="M4.13-81a3.209,3.209,0,0,1-1.088.617,2.974,2.974,0,0,1-.816.114A1.623,1.623,0,0,1,1.179-80.6a1.329,1.329,0,0,1-.424-1.1,1.933,1.933,0,0,1,.1-.613,1.86,1.86,0,0,1,.352-.6l.183-.2a.54.54,0,0,1,.108-.095.791.791,0,0,1-.334-.565,1.784,1.784,0,0,1,.446-.943.915.915,0,0,1,.7-.365.758.758,0,0,1,.385.113,2.049,2.049,0,0,1,.282.189.842.842,0,0,1,.15.166.308.308,0,0,1,.061.172c0,.009-.006.013-.013.013a1.84,1.84,0,0,0-.606-.13.937.937,0,0,0-.253.045,1.076,1.076,0,0,0-.32.165.32.32,0,0,0-.166.241q0,.122.231.259t.277.155q.1-.013.725-.171l.3-.058q.1-.019.271-.061l-.241.749H3.371a3.292,3.292,0,0,0-.466.073q-1.756.409-1.756,1.352a.6.6,0,0,0,.189.378,2.151,2.151,0,0,0,1.034.378,3.011,3.011,0,0,0,.352.047q.158.01.544.023Q3.814-81,4.13-81Z" transform="translate(3.623 88.609)" fill="#6f6bb2" stroke="#6f6bb2" stroke-width="0.4"/>
  </g>
</svg>
