<svg id="warning" xmlns="http://www.w3.org/2000/svg" width="27.416" height="24" viewBox="0 0 27.416 24">
  <path id="Path_2035" data-name="Path 2035" d="M27.251,35.745,14.544,13.735a.967.967,0,0,0-1.674,0L.13,35.8a.967.967,0,0,0,.837,1.45H26.449a.967.967,0,0,0,.8-1.507Zm-24.61-.426L13.707,16.152,24.772,35.319Z" transform="translate(0 -13.252)" fill="#989898"/>
  <path id="Path_2036" data-name="Path 2036" d="M98.848,70.047V78.28a.967.967,0,1,0,1.933,0V70.047a.967.967,0,1,0-1.933,0Z" transform="translate(-86.108 -61.885)" fill="#989898"/>
  <circle id="Ellipse_195" data-name="Ellipse 195" cx="1.202" cy="1.202" r="1.202" transform="translate(12.504 18.228)" fill="#989898"/>
</svg>
