<svg id="whatsapp" xmlns="http://www.w3.org/2000/svg" width="21.998" height="21.998" viewBox="0 0 21.998 21.998">
  <g id="Group_2320" data-name="Group 2320">
    <path id="Path_2541" data-name="Path 2541" d="M11,0H11a10.992,10.992,0,0,0-8.9,17.446L.723,21.532,4.951,20.18A11,11,0,1,0,11,0Zm6.4,15.532a3.1,3.1,0,0,1-2.159,1.552c-.575.122-1.325.22-3.852-.828A13.779,13.779,0,0,1,5.915,11.42,6.282,6.282,0,0,1,4.609,8.1,3.511,3.511,0,0,1,5.733,5.425a1.6,1.6,0,0,1,1.125-.395c.136,0,.258.007.368.012.323.014.485.033.7.543.265.639.912,2.218.989,2.38a.655.655,0,0,1,.047.6,1.9,1.9,0,0,1-.356.5c-.162.187-.316.33-.478.531-.148.175-.316.362-.129.685A9.763,9.763,0,0,0,9.781,12.5,8.086,8.086,0,0,0,12.36,14.09a.7.7,0,0,0,.775-.122,13.307,13.307,0,0,0,.859-1.138.614.614,0,0,1,.789-.239c.3.1,1.868.88,2.192,1.041s.536.239.615.375A2.739,2.739,0,0,1,17.4,15.532Z" fill="#ce9654"/>
  </g>
</svg>
